<svg width="20" height="10" viewBox="0 0 9 10" fill="none" xmlns="http://www.w3.org/2000/svg">
<path d="M7.73581 9.56004C7.73581 8.74801 7.73581 7.93598 7.73581 7.11353C7.73581 6.3015 7.54841 5.94754 7.2465 5.67686C6.88213 5.35413 6.40323 5.29166 6.13255 5.28125C5.86187 5.29166 5.38297 5.35413 5.0186 5.67686C4.71669 5.94754 4.5293 6.31191 4.5293 7.11353C4.5293 7.92557 4.5293 8.7376 4.5293 9.56004" stroke="#3F0E9B" stroke-linejoin="round"/>
<path d="M1.27154 2.54307C0.695411 2.54307 0.230469 2.07813 0.230469 1.50201C0.230469 0.92588 0.695401 0.460938 1.26142 0.460938H1.27154C1.84766 0.460938 2.31261 0.92588 2.31261 1.50201C2.31261 2.07813 1.84766 2.54307 1.27154 2.54307Z" fill="#3F0E9B"/>
<path d="M1.28125 9.55943V4.21875" stroke="#3F0E9B" stroke-linejoin="round"/>
</svg>
