<svg width="13" height="12" viewBox="0 0 13 12" fill="none" xmlns="http://www.w3.org/2000/svg">
<path d="M1.29176 1.94148C1.59284 2.32312 2.24875 3.05548 3.35627 3.5609C4.281 3.97349 5.10896 4.04569 5.59283 4.04569C5.56058 2.9317 6.24873 1.93116 7.29174 1.54951C8.20572 1.20913 9.27024 1.40511 10.0229 2.05494C10.5283 2.04463 11.0337 2.024 11.5391 2.01369C11.2595 2.38502 10.9692 2.75634 10.6896 3.11736C11.2917 5.39692 10.6251 7.77963 8.91541 9.24432C6.72186 11.1319 3.15196 11.2144 0.539062 9.25463C0.732611 9.28557 0.904659 9.29589 1.06595 9.28557C2.30251 9.234 3.15198 8.29537 3.41004 7.97561C2.94768 7.60428 2.24875 6.9235 1.74337 5.89203C0.883159 4.14884 1.15198 2.52942 1.29176 1.94148Z" stroke="#3F0E9B" stroke-linecap="round" stroke-linejoin="round"/>
</svg>
