<svg width="17" height="15" viewBox="0 0 17 15" fill="none" xmlns="http://www.w3.org/2000/svg">
<path d="M12.8721 4.58457C12.5614 4.40653 12.1619 4.40653 11.8068 4.58457L9.32115 6.05341L7.63447 6.98813L5.19321 8.45697C4.88251 8.63501 4.48303 8.63501 4.12794 8.45697L2.21932 7.2997C1.90862 7.12166 1.68668 6.76558 1.68668 6.36498V4.13947C1.68668 3.78338 1.86423 3.4273 2.21932 3.20475L4.12794 2.09199C4.43864 1.91395 4.83812 1.91395 5.19321 2.09199L7.10183 3.24926C7.41253 3.4273 7.63447 3.78338 7.63447 4.18398V5.65282L9.32115 4.67359V3.16024C9.32115 2.80415 9.1436 2.44807 8.78851 2.22552L5.2376 0.133531C4.92689 -0.0445104 4.52742 -0.0445104 4.17232 0.133531L0.532637 2.27003C0.177546 2.44807 0 2.80415 0 3.16024V7.34421C0 7.7003 0.177546 8.05638 0.532637 8.27893L4.12794 10.3709C4.43864 10.549 4.83812 10.549 5.19321 10.3709L7.63447 8.94659L9.32115 7.96736L11.7624 6.54303C12.0731 6.36499 12.4726 6.36499 12.8277 6.54303L14.7363 7.65579C15.047 7.83383 15.2689 8.18991 15.2689 8.5905V10.816C15.2689 11.1721 15.0914 11.5282 14.7363 11.7507L12.8721 12.8635C12.5614 13.0415 12.1619 13.0415 11.8068 12.8635L9.89817 11.7507C9.58747 11.5727 9.36554 11.2166 9.36554 10.816V9.39169L7.67885 10.3709V11.8398C7.67885 12.1958 7.8564 12.5519 8.21149 12.7745L11.8068 14.8665C12.1175 15.0445 12.517 15.0445 12.8721 14.8665L16.4674 12.7745C16.7781 12.5964 17 12.2404 17 11.8398V7.61128C17 7.25519 16.8225 6.89911 16.4674 6.67656L12.8721 4.58457Z" fill="#0F0F0F"/>
</svg>
