<svg width="306" height="306" viewBox="0 0 306 306" fill="none" xmlns="http://www.w3.org/2000/svg">
<path class="ReflektorLogo__letter" d="M171.526 228.694L166.247 223.415C165.23 222.397 164.023 221.59 162.694 221.04C161.365 220.489 159.94 220.205 158.502 220.205C157.063 220.205 155.639 220.489 154.31 221.04C152.981 221.59 151.773 222.397 150.756 223.415C149.714 224.461 148.891 225.704 148.335 227.072C147.466 229.228 147.294 231.602 147.845 233.86L131.676 237.261L137.762 243.347L151.857 240.127L158.419 238.618L154.784 234.983C153.275 233.475 153.517 230.738 155.032 229.222L155.832 228.468C156.559 227.728 157.542 227.297 158.579 227.263C159.615 227.229 160.624 227.596 161.398 228.287L166.677 233.528L147.302 252.909L151.963 257.57L176.209 233.317L172.039 229.154L171.526 228.694Z" fill="white"/>
<path class="ReflektorLogo__letter" d="M124.458 181.017C122.254 178.756 119.486 177.123 116.441 176.288C113.481 175.467 110.352 175.467 107.391 176.288C104.341 177.138 101.568 178.777 99.3523 181.039C97.1123 183.224 95.4934 185.964 94.6615 188.98C93.8581 191.897 93.8581 194.977 94.6615 197.894C95.5072 200.896 97.1245 203.623 99.3523 205.805C101.567 208.077 104.339 209.728 107.391 210.594C110.352 211.418 113.481 211.418 116.441 210.594C119.465 209.721 122.22 208.098 124.448 205.875C126.676 203.652 128.306 200.901 129.186 197.879C129.993 194.955 129.993 191.867 129.186 188.943C128.332 185.932 126.702 183.198 124.458 181.017ZM122.527 195.926C121.962 197.845 120.906 199.584 119.465 200.971C118.09 202.402 116.359 203.443 114.45 203.988C112.643 204.5 110.731 204.516 108.915 204.033C107.083 203.54 105.415 202.569 104.081 201.22C102.739 199.904 101.773 198.253 101.283 196.439C100.806 194.654 100.833 192.772 101.358 191.002C101.919 189.11 102.958 187.396 104.375 186.024C105.772 184.581 107.517 183.521 109.443 182.947C111.238 182.427 113.141 182.404 114.948 182.879C116.773 183.365 118.435 184.331 119.759 185.677C121.107 187.001 122.078 188.659 122.572 190.481C123.054 192.252 123.049 194.12 122.557 195.888L122.527 195.926Z" fill="white"/>
<path class="ReflektorLogo__letter" d="M72.2925 129.471L67.6318 134.131L74.9772 141.469L55.392 161.054L60.0451 165.722L79.6379 146.13L86.9757 153.475L91.6364 148.814L72.2925 129.471Z" fill="white"/>
<path class="ReflektorLogo__letter" d="M212.364 186.582L192.635 188.294L203.352 177.57L198.691 172.91L174.445 197.163L179.105 201.824L190.033 190.888L188.299 210.956L194.385 217.05L196.331 194.591L218.458 192.676L212.364 186.582Z" fill="white"/>
<g class="ReflektorLogo__letter" >
<path d="M157.691 131.899L153.03 136.56L168.863 152.392L173.524 147.732L157.691 131.899Z" fill="white"/>
<path d="M147.977 141.617L143.317 146.277L159.149 162.11L163.81 157.449L147.977 141.617Z" fill="white"/>
<path d="M138.271 151.323L133.611 155.984L149.443 171.816L154.104 167.156L138.271 151.323Z" fill="white"/>
</g>
<path class="ReflektorLogo__letter" d="M111.781 125.179L100.612 114.003L120.197 94.4178L115.536 89.7572L95.9434 109.342L91.2903 114.003L107.12 129.833L111.781 125.179Z" fill="white"/>
<path class="ReflektorLogo__letter" d="M252.418 154.094L257.079 149.433L245.894 138.256L245.902 138.241L241.241 133.581L216.995 157.827L221.656 162.495L231.52 152.623L241.151 162.246L245.804 157.585L236.181 147.962L241.234 142.917L252.418 154.094Z" fill="white"/>
<g class="ReflektorLogo__letter" >
<path d="M198.62 90.9797L193.959 95.6404L209.792 111.473L214.452 106.812L198.62 90.9797Z" fill="white"/>
<path d="M188.901 100.684L184.24 105.345L200.073 121.177L204.733 116.516L188.901 100.684Z" fill="white"/>
<path d="M179.2 110.396L174.539 115.057L190.372 130.889L195.033 126.228L179.2 110.396Z" fill="white"/>
</g>
<path class="ReflektorLogo__letter" d="M154.489 56.5822L159.768 61.8612C160.462 62.634 160.831 63.6445 160.799 64.6826C160.766 65.7207 160.335 66.7063 159.594 67.4344L158.84 68.1885C157.332 69.6968 154.594 69.9608 153.079 68.445L149.346 64.8251L147.837 71.3786L144.61 85.4661L150.696 91.5596L154.104 75.3756C155.946 75.8376 157.877 75.813 159.707 75.304C161.537 74.795 163.203 73.8191 164.542 72.4721C165.559 71.4546 166.367 70.2465 166.917 68.917C167.468 67.5874 167.752 66.1624 167.752 64.7232C167.752 63.2841 167.468 61.8591 166.917 60.5295C166.367 59.2 165.559 57.9919 164.542 56.9744L158.803 51.2353L154.632 47.0724L130.492 71.3107L135.153 75.9714L154.489 56.5822Z" fill="white"/>
<mask id="mask0" mask-type="alpha" maskUnits="userSpaceOnUse" x="0" y="0" width="307" height="307">
<rect class="ReflektorLogo__outline" x="153.484" y="4.24264" width="210.717" height="210.717" transform="rotate(45 153.484 4.24264)" stroke="white" stroke-width="6" stroke-miterlimit="16"/>
<rect class="ReflektorLogo__helper" x="153.484" y="4.24264" width="210.717" height="210.717" transform="rotate(45 153.484 4.24264)" stroke="white" stroke-width="6" stroke-miterlimit="16"/>
</mask>
<g mask="url(#mask0)">
<rect width="306" height="306" fill="white"/>
<rect class="" width="306" height="306" fill="url(#ffffff)"/>
</g>
<defs>
<linearGradient id="paint0_linear" x1="153" y1="0" x2="153" y2="306" gradientUnits="userSpaceOnUse">
<stop stop-color="#1B192E"/>
<stop offset="0.396552" stop-color="#9116E7"/>
<stop offset="1" stop-color="#FF738B"/>
</linearGradient>
</defs>
</svg>
