<svg width="158" height="56" viewBox="0 0 158 56" fill="none" xmlns="http://www.w3.org/2000/svg">
<mask id="mask0_457:223" style="mask-type:alpha" maskUnits="userSpaceOnUse" x="33" y="0" width="125" height="56">
<path fill-rule="evenodd" clip-rule="evenodd" d="M33 4.05371L33 0L158 4.11813e-06L158 56L33 56L33 45.8397L53.893 24.9467L33 4.05371Z" fill="#C4C4C4"/>
</mask>
<g mask="url(#mask0_457:223)">
<path d="M39.4014 6.5915C39.4588 8.19717 40.491 9.17204 42.2687 9.17204C44.1037 9.17204 45.1359 8.13982 45.1359 6.76354C45.1359 5.84602 44.5969 5.15788 43.6564 4.85968C43.5761 4.83674 43.5417 4.81381 43.5417 4.73352C43.5417 4.65324 43.5761 4.6303 43.6564 4.60736C44.5854 4.30917 45.0212 3.67837 45.0212 2.80673C45.0212 1.48779 44.0005 0.570265 42.2916 0.570265C40.6171 0.570265 39.5735 1.54513 39.5161 2.92142H40.663C40.7204 2.06124 41.3053 1.54513 42.2916 1.54513C43.3124 1.54513 43.8743 2.06124 43.8743 2.92142C43.8743 3.78159 43.2435 4.2977 42.0966 4.2977H41.5232V5.27257H42.0966C43.3582 5.27257 43.989 5.73133 43.989 6.64885C43.989 7.56637 43.4156 8.19717 42.2687 8.19717C41.1791 8.19717 40.6057 7.62372 40.5483 6.5915H39.4014ZM46.0445 5.27257C46.0445 7.8531 47.3061 9.17204 49.1411 9.17204C50.9188 9.17204 52.0657 7.96779 52.0657 6.36212C52.0657 4.75646 50.8615 3.72425 49.4623 3.72425C48.453 3.72425 47.891 4.10273 47.4667 4.67618C47.3978 4.76793 47.352 4.80234 47.2831 4.80234C47.2029 4.80234 47.1799 4.75646 47.1799 4.68765C47.2373 2.24474 48.3154 1.54513 49.3705 1.54513C50.4601 1.54513 50.8615 2.17593 50.9188 2.92142L52.0657 2.92142C52.0084 1.83186 51.2629 0.570265 49.4852 0.570265C47.4781 0.570265 46.0445 2.00389 46.0445 5.27257ZM47.3634 6.41947C47.3634 5.38726 48.0516 4.69911 49.1411 4.69911C50.2307 4.69911 50.9188 5.38726 50.9188 6.41947C50.9188 7.45168 50.2307 8.19717 49.1411 8.19717C48.1089 8.19717 47.3634 7.45168 47.3634 6.41947ZM56.8187 9H59.3418C61.6356 9 63.1266 7.79575 63.1266 4.87115C63.1266 1.94655 61.6356 0.742301 59.3418 0.742301L56.8187 0.742301V9ZM57.9656 7.96779V1.77451L59.3418 1.77451C61.0049 1.77451 61.9797 2.52 61.9797 4.87115C61.9797 7.2223 61.0049 7.96779 59.3418 7.96779H57.9656ZM63.7032 9H64.873L65.5612 6.47681H68.612L69.3001 9H70.4699V8.77062L68.2335 0.742301H65.9397L63.7032 8.77062V9ZM65.8364 5.4446L66.9834 1.21253C66.9948 1.16665 67.0178 1.14372 67.0866 1.14372C67.1554 1.14372 67.1783 1.16665 67.1898 1.21253L68.3367 5.4446H65.8364ZM70.2961 0.971681L73.0716 6.31625L71.81 8.77062V9H72.9799L77.1546 0.971681V0.742301L75.9389 0.742301L73.8171 4.98584C73.7942 5.03172 73.7712 5.04319 73.7253 5.04319C73.6795 5.04319 73.6565 5.03172 73.6336 4.98584L71.5118 0.742301H70.2961V0.971681ZM80.7325 0.570265C79.1842 0.570265 77.6932 1.31575 77.6932 2.92142C77.6932 4.46973 78.8401 4.91703 79.815 5.15788L80.7325 5.38726C81.5927 5.60517 82.5102 5.78867 82.5102 6.70619C82.5102 7.54343 81.822 8.1857 80.5031 8.1857C79.0695 8.1857 78.3813 7.39434 78.2666 6.24743H77.1197C77.1771 7.94485 78.2666 9.17204 80.4457 9.17204C82.4528 9.17204 83.6571 8.17423 83.6571 6.64885C83.6571 5.15788 82.579 4.74499 81.478 4.46973L80.5604 4.24035C79.7691 4.04538 78.8401 3.83894 78.8401 2.92142C78.8401 2.06124 79.5282 1.54513 80.6751 1.54513C81.8794 1.54513 82.5102 2.17593 82.5675 3.09345H83.7144C83.6571 1.43044 82.3955 0.570265 80.7325 0.570265ZM92.3113 0.570265C89.7881 0.570265 88.0104 2.29062 88.0104 4.87115C88.0104 7.45168 89.7881 9.17204 92.3113 9.17204C94.8344 9.17204 96.6121 7.45168 96.6121 4.87115C96.6121 2.29062 94.8344 0.570265 92.3113 0.570265ZM92.3113 1.60248C94.089 1.60248 95.4652 2.80673 95.4652 4.87115C95.4652 6.93558 94.089 8.13982 92.3113 8.13982C90.4189 8.13982 89.1573 6.93558 89.1573 4.87115C89.1573 2.80673 90.4189 1.60248 92.3113 1.60248ZM97.9347 9H99.0816V5.21522H102.637V4.18301H99.0816V1.77451H103.096V0.742301L97.9347 0.742301V9ZM106.989 1.77451L109.627 1.77451V9H110.774V1.77451H113.412V0.742301L106.989 0.742301V1.77451ZM113.697 0.971681L116.472 6.31625L115.211 8.77062V9H116.381L120.555 0.971681V0.742301H119.34L117.218 4.98584C117.195 5.03172 117.172 5.04319 117.126 5.04319C117.08 5.04319 117.057 5.03172 117.034 4.98584L114.913 0.742301H113.697V0.971681ZM121.534 9H122.68V5.4446H124.802C126.351 5.4446 127.383 4.58442 127.383 3.09345C127.383 1.60248 126.351 0.742301 124.802 0.742301H121.534V9ZM122.68 4.41239V1.77451L124.688 1.77451C125.662 1.77451 126.236 2.17593 126.236 3.09345C126.236 4.01097 125.662 4.41239 124.688 4.41239H122.68ZM128.534 9H133.867V7.96779H129.681V5.21522H133.408V4.18301H129.681V1.77451L133.809 1.77451V0.742301L128.534 0.742301V9Z" fill="white"/>
<path d="M37.92 48H61.44V43.68H43.488C44.448 40.08 47.952 38.544 52.56 35.52C58.752 31.488 61.2 28.56 61.2 23.04C61.2 17.28 56.928 12.72 49.536 12.72C42.048 12.72 37.68 17.04 37.44 23.28H42.24C42.48 19.2 45.168 16.8 49.536 16.8C53.568 16.8 56.4 19.2 56.4 23.28C56.4 27.84 52.272 30.576 48.72 32.88C40.656 38.112 37.92 40.8 37.92 48ZM63.7725 30.72C63.7725 43.68 69.5325 48.72 77.4525 48.72C85.3725 48.72 91.1325 43.68 91.1325 30.72C91.1325 17.76 85.3725 12.72 77.4525 12.72C69.5325 12.72 63.7725 17.76 63.7725 30.72ZM68.5725 30.72C68.5725 20.16 72.1725 17.04 77.4525 17.04C82.7325 17.04 86.3325 20.16 86.3325 30.72C86.3325 41.28 82.7325 44.4 77.4525 44.4C72.1725 44.4 68.5725 41.28 68.5725 30.72ZM94.0313 48L117.551 48V43.68L99.5993 43.68C100.559 40.08 104.063 38.544 108.671 35.52C114.863 31.488 117.311 28.56 117.311 23.04C117.311 17.28 113.039 12.72 105.647 12.72C98.1593 12.72 93.7913 17.04 93.5513 23.28H98.3513C98.5913 19.2 101.279 16.8 105.647 16.8C109.679 16.8 112.511 19.2 112.511 23.28C112.511 27.84 108.383 30.576 104.831 32.88C96.7673 38.112 94.0313 40.8 94.0313 48ZM119.726 22.56H124.382L127.598 15.888C127.79 15.504 127.934 15.36 128.27 15.36C128.51 15.36 128.606 15.456 128.606 15.696V48H133.406V13.44L123.998 13.44L119.726 21.6V22.56Z" fill="white"/>
</g>
<path d="M27.9435 37.1439L27.0823 36.2865C26.9164 36.1211 26.7195 35.9901 26.5027 35.9008C26.2859 35.8113 26.0534 35.7651 25.8188 35.7651C25.584 35.7651 25.3517 35.8113 25.1349 35.9008C24.9181 35.9901 24.721 36.1211 24.5551 36.2865C24.3851 36.4564 24.2509 36.6583 24.1601 36.8804C24.0184 37.2306 23.9903 37.6162 24.0802 37.9829L21.4424 38.5353L22.4353 39.5238L24.7347 39.0008L25.8053 38.7557L25.2122 38.1653C24.9661 37.9204 25.0055 37.4759 25.2527 37.2296L25.3832 37.1072C25.5018 36.987 25.6622 36.917 25.8314 36.9115C26.0004 36.9059 26.165 36.9655 26.2912 37.0778L27.1525 37.929L23.9916 41.0768L24.752 41.8338L28.7075 37.8947L28.0272 37.2186L27.9435 37.1439Z" fill="white"/>
<path d="M20.265 29.4003C19.9054 29.0331 19.4538 28.7679 18.9571 28.6322C18.4742 28.4989 17.9637 28.4989 17.4807 28.6322C16.9831 28.7703 16.5307 29.0365 16.1692 29.4039C15.8038 29.7587 15.5397 30.2038 15.404 30.6936C15.2729 31.1674 15.2729 31.6676 15.404 32.1414C15.5419 32.629 15.8058 33.0719 16.1692 33.4263C16.5305 33.7953 16.9828 34.0634 17.4807 34.2041C17.9637 34.3379 18.4742 34.3379 18.9571 34.2041C19.4504 34.0623 19.8999 33.7987 20.2633 33.4376C20.6268 33.0766 20.8927 32.6298 21.0363 32.1389C21.168 31.664 21.168 31.1625 21.0363 30.6876C20.897 30.1986 20.6311 29.7545 20.265 29.4003ZM19.95 31.8218C19.8578 32.1334 19.6855 32.4159 19.4504 32.6411C19.2261 32.8736 18.9437 33.0426 18.6323 33.1311C18.3375 33.2143 18.0256 33.2169 17.7293 33.1385C17.4304 33.0584 17.1583 32.9007 16.9407 32.6816C16.7217 32.4678 16.5641 32.1997 16.4842 31.9051C16.4064 31.6152 16.4108 31.3095 16.4964 31.022C16.588 30.7147 16.7575 30.4363 16.9886 30.2135C17.2165 29.9791 17.5012 29.807 17.8154 29.7138C18.1083 29.6293 18.4187 29.6256 18.7135 29.7027C19.0112 29.7816 19.2824 29.9385 19.4984 30.1572C19.7183 30.3722 19.8767 30.6415 19.9573 30.9374C20.0359 31.225 20.0351 31.5284 19.9549 31.8156L19.95 31.8218Z" fill="white"/>
<path d="M11.7552 21.0283L10.9949 21.7852L12.1932 22.977L8.99805 26.1579L9.75716 26.916L12.9535 23.734L14.1506 24.9269L14.911 24.1699L11.7552 21.0283Z" fill="white"/>
<path d="M34.606 30.304L31.3874 30.5821L33.1358 28.8404L32.3754 28.0835L28.4199 32.0226L29.1802 32.7796L30.963 31.0034L30.6801 34.2628L31.6729 35.2525L31.9904 31.6048L35.6002 31.2938L34.606 30.304Z" fill="white"/>
<path d="M25.6852 21.4224L24.9248 22.1794L27.5078 24.7507L28.2682 23.9939L25.6852 21.4224Z" fill="white"/>
<path d="M24.1001 23.001L23.3398 23.7578L25.9227 26.3294L26.6831 25.5723L24.1001 23.001Z" fill="white"/>
<path d="M22.5171 24.5771L21.7568 25.3342L24.3397 27.9055L25.1001 27.1487L22.5171 24.5771Z" fill="white"/>
<path d="M18.1964 20.3312L16.3743 18.516L19.5694 15.3351L18.809 14.5781L15.6126 17.759L14.8535 18.516L17.436 21.0871L18.1964 20.3312Z" fill="white"/>
<path d="M41.1393 25.0274L41.8997 24.2704L40.075 22.4551L40.0763 22.4527L39.3159 21.6958L35.3604 25.6337L36.1208 26.3919L37.73 24.7885L39.3012 26.3514L40.0603 25.5944L38.4904 24.0315L39.3147 23.2121L41.1393 25.0274Z" fill="white"/>
<path d="M32.3629 14.7769L31.6025 15.5338L34.1855 18.1053L34.9458 17.3483L32.3629 14.7769Z" fill="white"/>
<path d="M30.777 16.353L30.0166 17.11L32.5996 19.6814L33.3598 18.9244L30.777 16.353Z" fill="white"/>
<path d="M29.195 17.9302L28.4346 18.6872L31.0176 21.2586L31.778 20.5015L29.195 17.9302Z" fill="white"/>
<path d="M25.1639 9.19005L26.0251 10.0474C26.1383 10.173 26.1985 10.3371 26.1933 10.5057C26.1879 10.6743 26.1176 10.8344 25.9967 10.9526L25.8737 11.0751C25.6277 11.3201 25.181 11.3629 24.9339 11.1167L24.3249 10.5288L24.0787 11.5932L23.5522 13.8812L24.5451 14.8709L25.1011 12.2424C25.4016 12.3174 25.7166 12.3134 26.0152 12.2308C26.3137 12.1481 26.5855 11.9896 26.804 11.7708C26.9699 11.6056 27.1017 11.4093 27.1914 11.1934C27.2813 10.9775 27.3276 10.746 27.3276 10.5123C27.3276 10.2785 27.2813 10.0471 27.1914 9.83115C27.1017 9.61522 26.9699 9.419 26.804 9.25375L25.8677 8.32163L25.1872 7.64551L21.249 11.5822L22.0094 12.3392L25.1639 9.19005Z" fill="white"/>
<path fill-rule="evenodd" clip-rule="evenodd" d="M25 0L50 24.8889L25 49.7778L-2.30127e-06 24.8889L25 0ZM25 1.37814L1.38429 24.8889L25 48.3996L48.6157 24.8889L25 1.37814Z" fill="white"/>
</svg>
