<svg width="16" height="21" viewBox="0 0 16 21" fill="none" xmlns="http://www.w3.org/2000/svg">
<path d="M7.99988 15C7.44759 15 6.99988 14.5803 6.99988 14.0625L6.99988 0.9375C6.99988 0.419733 7.44759 2.32771e-08 7.99988 0C8.55216 -2.32771e-08 8.99988 0.419733 8.99988 0.9375L8.99988 14.0625C8.99988 14.5803 8.55216 15 7.99988 15Z" fill="white"/>
<path fill-rule="evenodd" clip-rule="evenodd" d="M1 15C1.55228 15 2 15.4477 2 16V19H14V16C14 15.4477 14.4477 15 15 15C15.5523 15 16 15.4477 16 16V20C16 20.5523 15.5523 21 15 21H1C0.447715 21 0 20.5523 0 20V16C0 15.4477 0.447715 15 1 15Z" fill="white"/>
<path fill-rule="evenodd" clip-rule="evenodd" d="M7.29289 0.292894C7.68342 -0.0976307 8.31658 -0.0976307 8.70711 0.292894L14.7071 6.29289C15.0976 6.68342 15.0976 7.31658 14.7071 7.70711C14.3166 8.09763 13.6834 8.09763 13.2929 7.70711L8 2.41421L2.70711 7.70711C2.31658 8.09763 1.68342 8.09763 1.29289 7.70711C0.902368 7.31658 0.902368 6.68342 1.29289 6.29289L7.29289 0.292894Z" fill="white"/>
</svg>
