<svg width="26" height="16" viewBox="0 0 26 16" fill="none" xmlns="http://www.w3.org/2000/svg">
<path fill-rule="evenodd" clip-rule="evenodd" d="M8.70717 0.292957C9.09769 0.683483 9.09769 1.31665 8.70716 1.70717L2.41422 8.00006L8.70717 14.293C9.09769 14.6835 9.09769 15.3167 8.70717 15.7072C8.31664 16.0978 7.68348 16.0978 7.29295 15.7072L0.292893 8.70717C0.105356 8.51963 -5.96044e-07 8.26528 0 8.00006C5.96049e-07 7.73484 0.105359 7.48049 0.292896 7.29295L7.29296 0.292951C7.68348 -0.0975718 8.31665 -0.0975691 8.70717 0.292957Z" fill="white"/>
<path fill-rule="evenodd" clip-rule="evenodd" d="M17.293 15.7072C16.9024 15.3166 16.9024 14.6835 17.293 14.293L23.5859 8.00006L17.293 1.70711C16.9024 1.31658 16.9024 0.683417 17.293 0.292894C17.6835 -0.0976312 18.3166 -0.0976312 18.7072 0.292894L25.7072 7.29295C25.8948 7.48049 26.0001 7.73485 26.0001 8.00006C26.0001 8.26528 25.8948 8.51964 25.7072 8.70717L18.7072 15.7072C18.3166 16.0977 17.6835 16.0977 17.293 15.7072Z" fill="white"/>
</svg>
